<?xml version="1.0" standalone="no"?>
<!DOCTYPE svg PUBLIC "-//W3C//DTD SVG 20010904//EN"
 "http://www.w3.org/TR/2001/REC-SVG-20010904/DTD/svg10.dtd">
<svg version="1.0" xmlns="http://www.w3.org/2000/svg"
 width="887.000000pt" height="551.000000pt" viewBox="0 0 887.000000 551.000000"
 preserveAspectRatio="xMidYMid meet">

<g transform="translate(0.000000,551.000000) scale(0.100000,-0.100000)"
fill="#000000" stroke="none">
<path d="M2085 5410 c-3 -6 1 -7 9 -4 18 7 21 14 7 14 -6 0 -13 -4 -16 -10z"/>
<path d="M2187 5403 c3 -7 6 -13 8 -13 2 0 5 6 8 13 3 8 -1 14 -8 14 -7 0 -11
-6 -8 -14z"/>
<path d="M790 5400 c0 -5 7 -10 15 -10 8 0 15 -4 15 -10 0 -17 -38 -11 -43 8
-3 9 -5 -1 -5 -23 0 -22 2 -33 5 -24 2 9 15 19 29 22 19 3 24 0 25 -17 1 -18
2 -18 8 4 8 25 3 55 -7 46 -2 -3 -13 -1 -23 5 -13 6 -19 6 -19 -1z"/>
<path d="M2310 5400 c0 -5 7 -10 15 -10 8 0 15 -4 15 -10 0 -17 -38 -11 -43 8
-3 9 -5 -1 -5 -23 0 -22 2 -33 5 -24 2 9 15 19 29 22 19 3 24 0 25 -17 1 -18
2 -18 8 4 8 25 3 55 -7 46 -2 -3 -13 -1 -23 5 -13 6 -19 6 -19 -1z"/>
<path d="M218 5389 c-6 -17 2 -59 11 -59 8 0 8 56 0 65 -4 3 -9 1 -11 -6z"/>
<path d="M498 5389 c-6 -17 2 -59 11 -59 8 0 8 56 0 65 -4 3 -9 1 -11 -6z"/>
<path d="M873 5365 c0 -22 2 -30 4 -17 2 12 2 30 0 40 -3 9 -5 -1 -4 -23z"/>
<path d="M972 5365 c0 -22 3 -30 5 -17 2 12 8 22 13 22 5 0 11 -10 13 -22 4
-20 4 -19 6 5 1 17 -4 27 -13 27 -8 0 -17 6 -19 13 -3 6 -5 -6 -5 -28z"/>
<path d="M1093 5365 c0 -22 2 -30 4 -17 2 12 2 30 0 40 -3 9 -5 -1 -4 -23z"/>
<path d="M1270 5390 c0 -5 -6 -10 -14 -10 -18 0 -30 -30 -17 -43 6 -6 9 -3 8
8 -3 27 21 29 26 3 3 -15 5 -10 6 15 0 20 -1 37 -4 37 -3 0 -5 -4 -5 -10z"/>
<path d="M1802 5365 c0 -22 3 -30 5 -17 2 12 8 22 13 22 5 0 11 -10 13 -22 4
-20 4 -19 6 5 1 17 -4 27 -13 27 -8 0 -17 6 -19 13 -3 6 -5 -6 -5 -28z"/>
<path d="M1861 5369 c-1 -25 3 -36 14 -36 8 0 15 4 15 9 0 4 9 8 20 8 13 0 18
5 14 15 -7 18 -44 20 -45 3 -1 -7 -5 -2 -9 12 -7 23 -8 22 -9 -11z"/>
<path d="M2021 5353 c0 -29 3 -53 7 -53 4 0 6 17 4 38 -6 64 -10 69 -11 15z"/>
<path d="M2106 5384 c-9 -24 -7 -52 5 -59 6 -4 13 2 16 14 7 29 23 16 23 -20
0 -42 30 -39 31 4 1 23 3 26 6 10 2 -13 11 -23 20 -23 11 0 14 8 11 30 -3 22
-1 29 8 26 13 -5 13 19 -1 31 -4 4 -5 2 -1 -4 7 -12 -5 -18 -27 -14 -5 1 -6
-3 -2 -9 3 -5 2 -10 -4 -10 -5 0 -13 9 -16 20 -6 18 -8 19 -23 4 -14 -15 -17
-15 -28 0 -11 15 -12 15 -18 0z m11 -36 c-3 -8 -6 -5 -6 6 -1 11 2 17 5 13 3
-3 4 -12 1 -19z m50 -30 c-2 -13 -4 -5 -4 17 -1 22 1 32 4 23 2 -10 2 -28 0
-40z m40 10 c-3 -8 -6 -5 -6 6 -1 11 2 17 5 13 3 -3 4 -12 1 -19z"/>
<path d="M2393 5365 c0 -22 2 -30 4 -17 2 12 2 30 0 40 -3 9 -5 -1 -4 -23z"/>
<path d="M2492 5365 c0 -22 3 -30 5 -17 2 12 8 22 13 22 5 0 11 -10 13 -22 4
-20 4 -19 6 5 1 17 -4 27 -13 27 -8 0 -17 6 -19 13 -3 6 -5 -6 -5 -28z"/>
<path d="M2613 5365 c0 -22 2 -30 4 -17 2 12 2 30 0 40 -3 9 -5 -1 -4 -23z"/>
<path d="M2790 5390 c0 -5 -6 -10 -14 -10 -18 0 -30 -30 -17 -43 6 -6 9 -3 8
8 -3 27 21 29 26 3 3 -15 5 -10 6 15 0 20 -1 37 -4 37 -3 0 -5 -4 -5 -10z"/>
<path d="M3322 5365 c0 -22 3 -30 5 -17 2 12 8 22 13 22 5 0 11 -10 13 -22 4
-20 4 -19 6 5 1 17 -4 27 -13 27 -8 0 -17 6 -19 13 -3 6 -5 -6 -5 -28z"/>
<path d="M3381 5369 c-1 -25 3 -36 14 -36 8 0 15 4 15 9 0 4 9 8 20 8 13 0 18
5 14 15 -7 18 -44 20 -45 3 -1 -7 -5 -2 -9 12 -7 23 -8 22 -9 -11z"/>
<path d="M3558 5350 c-1 -28 0 -50 5 -50 4 0 7 23 7 50 0 65 -7 65 -12 0z"/>
<path d="M122 5350 c0 -19 2 -27 5 -17 2 9 2 25 0 35 -3 9 -5 1 -5 -18z"/>
<path d="M151 5353 c2 -24 2 -25 6 -5 5 27 23 29 23 3 0 -11 5 -23 10 -26 6
-4 10 7 10 24 0 26 -4 31 -25 31 -21 0 -25 -4 -24 -27z"/>
<path d="M256 5363 c-8 -21 17 -48 35 -37 9 5 8 9 -7 15 -18 7 -17 8 3 8 16 1
21 6 17 16 -8 20 -40 19 -48 -2z"/>
<path d="M331 5353 c0 -16 3 -22 6 -13 3 8 10 21 16 28 7 8 5 12 -7 12 -11 0
-16 -8 -15 -27z"/>
<path d="M395 5371 c19 -8 19 -8 -2 -15 -25 -8 -30 -21 -10 -28 22 -9 37 3 37
28 0 18 -5 24 -22 23 -22 0 -22 -1 -3 -8z"/>
<path d="M440 5356 c0 -23 22 -41 34 -29 12 12 6 22 -9 17 -10 -4 -15 0 -15
11 0 11 5 15 15 11 8 -3 15 -1 15 4 0 6 -9 10 -20 10 -14 0 -20 -7 -20 -24z"/>
<path d="M542 5355 c0 -16 2 -22 5 -12 2 9 2 23 0 30 -3 6 -5 -1 -5 -18z"/>
<path d="M568 5368 c-9 -23 3 -38 29 -38 20 0 24 4 21 23 -3 25 -42 37 -50 15z
m40 -16 c2 -7 -3 -12 -12 -12 -9 0 -16 7 -16 16 0 17 22 14 28 -4z"/>
<path d="M641 5348 c2 -31 2 -31 6 -5 5 31 23 37 23 8 0 -11 5 -23 10 -26 6
-4 10 7 10 24 0 26 -4 31 -25 31 -22 0 -25 -4 -24 -32z"/>
<path d="M890 5355 c0 -23 3 -27 10 -15 8 12 10 12 10 1 0 -8 3 -12 6 -8 3 3
-1 16 -10 29 l-16 22 0 -29z"/>
<path d="M910 5371 c0 -5 9 -7 20 -4 11 3 20 7 20 9 0 2 -9 4 -20 4 -11 0 -20
-4 -20 -9z"/>
<path d="M1030 5365 c0 -8 6 -15 14 -15 8 0 17 -6 19 -12 4 -10 6 -10 6 0 1 7
-6 15 -15 19 -13 5 -13 7 -2 14 10 7 9 9 -4 9 -10 0 -18 -7 -18 -15z"/>
<path d="M1122 5355 c0 -16 2 -22 5 -12 2 9 2 23 0 30 -3 6 -5 -1 -5 -18z"/>
<path d="M1152 5355 c0 -16 2 -22 5 -12 2 9 2 23 0 30 -3 6 -5 -1 -5 -18z"/>
<path d="M1181 5353 c2 -24 2 -25 6 -5 2 12 8 22 13 22 5 0 11 -10 13 -22 4
-20 4 -19 6 5 1 21 -4 27 -19 27 -15 0 -20 -6 -19 -27z"/>
<path d="M1297 5367 c-3 -8 -1 -20 4 -28 6 -10 9 -10 9 -1 0 6 9 12 20 12 13
0 18 5 14 15 -8 19 -40 20 -47 2z"/>
<path d="M1361 5353 c2 -24 2 -25 6 -5 2 12 8 22 13 22 5 0 11 -10 13 -22 4
-20 4 -19 6 5 1 21 -4 27 -19 27 -15 0 -20 -6 -19 -27z"/>
<path d="M1474 5371 c19 -7 19 -8 -3 -14 -14 -3 -20 -10 -16 -17 6 -9 10 -9
16 1 8 12 11 11 19 -1 8 -12 10 -9 10 13 0 22 -4 27 -22 26 -21 0 -22 -1 -4
-8z"/>
<path d="M1522 5355 c0 -16 2 -22 5 -12 2 9 2 23 0 30 -3 6 -5 -1 -5 -18z"/>
<path d="M1552 5355 c0 -16 2 -22 5 -12 2 9 2 23 0 30 -3 6 -5 -1 -5 -18z"/>
<path d="M1580 5365 c0 -8 7 -15 15 -15 8 0 15 -5 15 -11 0 -6 -7 -8 -17 -4
-15 5 -16 4 -5 -6 10 -11 14 -11 25 0 10 10 8 15 -6 26 -18 13 -18 13 0 18 14
4 14 5 -4 6 -14 1 -23 -5 -23 -14z"/>
<path d="M1637 5357 c3 -15 9 -27 14 -27 13 0 11 13 -5 35 -13 18 -14 18 -9
-8z"/>
<path d="M1660 5365 c0 -8 5 -15 10 -15 6 0 10 7 10 15 0 8 -4 15 -10 15 -5 0
-10 -7 -10 -15z"/>
<path d="M1690 5361 c-12 -24 -13 -34 -1 -27 9 6 22 46 15 46 -2 0 -8 -9 -14
-19z"/>
<path d="M1755 5370 c16 -7 16 -9 4 -9 -9 -1 -19 -8 -23 -16 -7 -18 10 -20 17
-2 4 9 8 8 16 -3 9 -12 11 -10 11 13 0 22 -4 27 -22 26 -22 0 -22 -1 -3 -9z"/>
<path d="M1941 5353 c2 -24 2 -25 6 -5 2 12 8 22 13 22 5 0 11 -10 13 -22 4
-20 4 -19 6 5 1 21 -4 27 -19 27 -15 0 -20 -6 -19 -27z"/>
<path d="M2410 5355 c0 -23 3 -27 10 -15 8 12 10 12 10 1 0 -8 3 -12 6 -8 3 3
-1 16 -10 29 l-16 22 0 -29z"/>
<path d="M2430 5371 c0 -5 9 -7 20 -4 11 3 20 7 20 9 0 2 -9 4 -20 4 -11 0
-20 -4 -20 -9z"/>
<path d="M2550 5365 c0 -8 6 -15 14 -15 8 0 17 -6 19 -12 4 -10 6 -10 6 0 1 7
-6 15 -15 19 -13 5 -13 7 -2 14 10 7 9 9 -4 9 -10 0 -18 -7 -18 -15z"/>
<path d="M2642 5355 c0 -16 2 -22 5 -12 2 9 2 23 0 30 -3 6 -5 -1 -5 -18z"/>
<path d="M2672 5355 c0 -16 2 -22 5 -12 2 9 2 23 0 30 -3 6 -5 -1 -5 -18z"/>
<path d="M2701 5353 c2 -24 2 -25 6 -5 2 12 8 22 13 22 5 0 11 -10 13 -22 4
-20 4 -19 6 5 1 21 -4 27 -19 27 -15 0 -20 -6 -19 -27z"/>
<path d="M2817 5367 c-3 -8 -1 -20 4 -28 6 -10 9 -10 9 -1 0 6 9 12 20 12 13
0 18 5 14 15 -8 19 -40 20 -47 2z"/>
<path d="M2881 5353 c2 -24 2 -25 6 -5 2 12 8 22 13 22 5 0 11 -10 13 -22 4
-20 4 -19 6 5 1 21 -4 27 -19 27 -15 0 -20 -6 -19 -27z"/>
<path d="M2994 5371 c19 -7 19 -8 -3 -14 -14 -3 -20 -10 -16 -17 6 -9 10 -9
16 1 8 12 11 11 19 -1 8 -12 10 -9 10 13 0 22 -4 27 -22 26 -21 0 -22 -1 -4
-8z"/>
<path d="M3042 5355 c0 -16 2 -22 5 -12 2 9 2 23 0 30 -3 6 -5 -1 -5 -18z"/>
<path d="M3072 5355 c0 -16 2 -22 5 -12 2 9 2 23 0 30 -3 6 -5 -1 -5 -18z"/>
<path d="M3100 5365 c0 -8 7 -15 15 -15 8 0 15 -5 15 -11 0 -6 -7 -8 -17 -4
-15 5 -16 4 -5 -6 10 -11 14 -11 25 0 10 10 8 15 -6 26 -18 13 -18 13 0 18 14
4 14 5 -4 6 -14 1 -23 -5 -23 -14z"/>
<path d="M3157 5357 c3 -15 9 -27 14 -27 13 0 11 13 -5 35 -13 18 -14 18 -9
-8z"/>
<path d="M3180 5365 c0 -8 5 -15 10 -15 6 0 10 7 10 15 0 8 -4 15 -10 15 -5 0
-10 -7 -10 -15z"/>
<path d="M3210 5361 c-12 -24 -13 -34 -1 -27 9 6 22 46 15 46 -2 0 -8 -9 -14
-19z"/>
<path d="M3275 5370 c16 -7 16 -9 4 -9 -9 -1 -19 -8 -23 -16 -7 -18 10 -20 17
-2 4 9 8 8 16 -3 9 -12 11 -10 11 13 0 22 -4 27 -22 26 -22 0 -22 -1 -3 -9z"/>
<path d="M3461 5353 c2 -24 2 -25 6 -5 2 12 8 22 13 22 5 0 11 -10 13 -22 4
-20 4 -19 6 5 1 21 -4 27 -19 27 -15 0 -20 -6 -19 -27z"/>
<path d="M1418 5353 c7 -3 16 -2 19 1 4 3 -2 6 -13 5 -11 0 -14 -3 -6 -6z"/>
<path d="M2938 5353 c7 -3 16 -2 19 1 4 3 -2 6 -13 5 -11 0 -14 -3 -6 -6z"/>
<path d="M2231 5284 c0 -11 3 -14 6 -6 3 7 2 16 -1 19 -3 4 -6 -2 -5 -13z"/>
<path d="M3619 5273 c-13 -16 -12 -17 4 -4 9 7 17 15 17 17 0 8 -8 3 -21 -13z"/>
<path d="M810 4690 c-16 -16 -18 -25 -10 -40 15 -27 27 -32 50 -20 26 14 26
56 0 70 -15 8 -24 6 -40 -10z m40 -25 c0 -25 -23 -35 -35 -15 -10 16 2 40 20
40 9 0 15 -9 15 -25z"/>
<path d="M881 4668 c-1 -39 2 -46 17 -43 9 2 20 4 25 4 4 1 7 12 7 26 0 18 -5
25 -19 25 -11 0 -22 8 -24 18 -3 9 -5 -4 -6 -30z m39 -19 c0 -5 -7 -9 -15 -9
-15 0 -20 12 -9 23 8 8 24 -1 24 -14z"/>
<path d="M1952 4665 c0 -27 3 -40 5 -27 5 27 29 29 36 3 4 -17 10 -18 63 -12
6 0 9 12 6 26 -5 29 -41 35 -43 8 -1 -10 -5 -2 -9 17 -7 32 -8 33 -15 13 -4
-13 -11 -23 -16 -23 -6 0 -14 10 -19 23 -7 17 -9 11 -8 -28z"/>
<path d="M2452 4665 c0 -27 2 -41 5 -30 7 31 23 42 23 18 0 -12 5 -25 10 -28
6 -4 10 7 10 24 0 24 -4 31 -19 31 -11 0 -22 8 -24 18 -3 9 -5 -5 -5 -33z"/>
<path d="M2680 4670 c-6 -23 -9 -44 -6 -47 2 -3 10 14 16 37 6 23 9 44 6 47
-2 3 -10 -14 -16 -37z"/>
<path d="M2712 4665 c1 -31 3 -39 5 -21 l5 29 23 -29 c14 -16 24 -23 25 -15 0
11 3 11 15 1 8 -6 20 -8 26 -4 9 5 7 10 -7 15 -18 7 -17 8 3 8 16 1 21 5 16
17 -4 10 -14 14 -29 11 -17 -3 -24 1 -27 17 -3 15 -5 12 -6 -9 l-1 -30 -25 30
-24 30 1 -50z"/>
<path d="M2851 4668 c-1 -39 2 -46 17 -43 9 2 20 4 25 4 4 1 7 12 7 26 0 18
-5 25 -19 25 -11 0 -22 8 -24 18 -3 9 -5 -4 -6 -30z m37 -16 c2 -7 -3 -12 -12
-12 -9 0 -16 7 -16 16 0 17 22 14 28 -4z"/>
<path d="M3252 4665 c0 -27 2 -41 5 -30 7 31 23 42 23 18 0 -12 5 -25 10 -28
6 -4 10 7 10 24 0 24 -4 31 -19 31 -11 0 -22 8 -24 18 -3 9 -5 -5 -5 -33z"/>
<path d="M4151 4663 c1 -27 3 -40 6 -30 2 9 10 17 18 17 7 0 19 7 26 16 11 14
10 18 -6 30 -35 26 -45 18 -44 -33z m39 17 c0 -5 -7 -10 -15 -10 -8 0 -15 5
-15 10 0 6 7 10 15 10 8 0 15 -4 15 -10z"/>
<path d="M4463 4665 c0 -27 2 -38 4 -22 2 15 2 37 0 50 -2 12 -4 0 -4 -28z"/>
<path d="M4493 4665 c0 -27 2 -38 4 -22 2 15 2 37 0 50 -2 12 -4 0 -4 -28z"/>
<path d="M4622 4665 c-1 -43 1 -46 9 -25 l10 25 19 -25 c14 -17 20 -20 20 -9
0 8 -5 20 -12 27 -9 9 -9 15 0 24 19 19 14 33 -6 15 -23 -21 -29 -21 -35 1 -3
9 -5 -5 -5 -33z"/>
<path d="M7331 4663 c1 -27 3 -41 6 -32 2 10 12 20 21 23 9 3 23 9 30 12 8 4
12 -3 12 -22 0 -37 17 -20 23 24 4 23 1 32 -9 32 -8 0 -14 -5 -14 -11 0 -5
-10 -3 -22 5 -38 27 -48 20 -47 -31z m39 17 c0 -5 -7 -10 -15 -10 -8 0 -15 5
-15 10 0 6 7 10 15 10 8 0 15 -4 15 -10z"/>
<path d="M7443 4665 c0 -27 2 -38 4 -22 2 15 2 37 0 50 -2 12 -4 0 -4 -28z"/>
<path d="M7562 4665 c0 -27 2 -41 5 -30 7 31 23 42 23 18 0 -12 5 -25 10 -28
6 -4 10 7 10 24 0 24 -4 31 -19 31 -11 0 -22 8 -24 18 -3 9 -5 -5 -5 -33z"/>
<path d="M7956 4695 c-3 -8 -12 -15 -20 -15 -17 0 -27 -22 -17 -39 4 -6 17
-13 29 -16 20 -3 22 0 22 41 0 46 -4 54 -14 29z m-6 -40 c0 -8 -4 -15 -10 -15
-5 0 -10 7 -10 15 0 8 5 15 10 15 6 0 10 -7 10 -15z"/>
<path d="M2219 4689 c-2 -25 3 -54 10 -62 4 -4 7 8 7 27 -2 35 -15 63 -17 35z"/>
<path d="M2519 4689 c-2 -25 3 -54 10 -62 4 -4 7 8 7 27 -2 35 -15 63 -17 35z"/>
<path d="M3318 4689 c-6 -17 2 -59 11 -59 8 0 8 56 0 65 -4 3 -9 1 -11 -6z"/>
<path d="M4829 4689 c-2 -25 3 -54 10 -62 4 -4 7 8 7 27 -2 35 -15 63 -17 35z"/>
<path d="M7629 4689 c-2 -25 3 -54 10 -62 4 -4 7 8 7 27 -2 35 -15 63 -17 35z"/>
<path d="M7739 4689 c-2 -25 3 -54 10 -62 4 -4 7 8 7 27 -2 35 -15 63 -17 35z"/>
<path d="M951 4648 c2 -31 2 -31 6 -5 5 31 23 37 23 7 0 -28 20 -25 21 3 1 20
2 19 14 -8 l14 -30 1 33 c0 31 -1 32 -40 32 -39 0 -40 -1 -39 -32z"/>
<path d="M1075 4670 c16 -7 17 -9 3 -9 -22 -1 -34 -21 -18 -31 21 -13 40 0 40
26 0 18 -5 24 -22 23 -22 0 -22 -1 -3 -9z"/>
<path d="M1121 4648 c2 -31 2 -31 6 -5 5 31 23 37 23 8 0 -11 5 -23 10 -26 6
-4 10 7 10 24 0 26 -4 31 -25 31 -22 0 -25 -4 -24 -32z"/>
<path d="M1191 4648 c2 -31 2 -31 6 -5 5 31 23 37 23 8 0 -11 5 -23 10 -26 6
-4 10 7 10 24 0 26 -4 31 -25 31 -22 0 -25 -4 -24 -32z"/>
<path d="M2083 4656 c2 -23 7 -30 25 -31 18 -1 22 3 22 27 0 15 -4 28 -10 28
-5 0 -10 -9 -10 -20 0 -27 -17 -25 -23 3 -4 15 -5 13 -4 -7z"/>
<path d="M2151 4638 c0 -29 3 -37 8 -25 4 10 10 18 14 18 23 -3 27 1 27 24 0
20 -5 25 -25 25 -23 0 -25 -4 -24 -42z m39 11 c0 -5 -7 -9 -15 -9 -15 0 -20
12 -9 23 8 8 24 -1 24 -14z"/>
<path d="M2261 4638 c0 -29 3 -37 8 -25 4 10 10 18 14 18 23 -3 27 1 27 24 0
20 -5 25 -25 25 -23 0 -25 -4 -24 -42z m39 11 c0 -5 -7 -9 -15 -9 -15 0 -20
12 -9 23 8 8 24 -1 24 -14z"/>
<path d="M2345 4670 c16 -7 17 -9 3 -9 -9 -1 -20 -6 -24 -12 -10 -16 8 -29 32
-23 29 8 21 54 -10 53 -20 0 -20 -1 -1 -9z"/>
<path d="M2386 4663 c-7 -18 20 -47 35 -37 15 9 10 24 -6 18 -10 -4 -15 0 -15
11 0 11 5 15 15 11 8 -3 15 -1 15 4 0 17 -38 11 -44 -7z"/>
<path d="M2556 4664 c-8 -22 17 -49 35 -38 9 5 8 9 -7 15 -17 7 -17 8 4 8 29
1 24 25 -5 29 -12 2 -23 -4 -27 -14z"/>
<path d="M2631 4648 c1 -22 3 -26 6 -13 3 11 10 26 15 33 8 9 6 12 -6 12 -12
0 -16 -9 -15 -32z"/>
<path d="M2916 4663 c-8 -21 17 -48 35 -37 9 5 8 9 -7 15 -18 7 -17 8 3 8 16
1 21 6 17 16 -8 20 -40 19 -48 -2z"/>
<path d="M2991 4648 c1 -22 3 -26 6 -13 7 31 23 42 23 18 0 -12 5 -25 10 -28
6 -4 10 7 10 24 0 26 -4 31 -25 31 -22 0 -25 -4 -24 -32z"/>
<path d="M3061 4638 c0 -29 3 -37 8 -25 4 10 10 18 14 18 23 -3 27 1 27 24 0
20 -5 25 -25 25 -23 0 -25 -4 -24 -42z m39 11 c0 -5 -7 -9 -15 -9 -15 0 -20
12 -9 23 8 8 24 -1 24 -14z"/>
<path d="M3145 4670 c16 -7 17 -9 3 -9 -22 -1 -34 -21 -18 -31 21 -13 40 0 40
26 0 18 -5 24 -22 23 -22 0 -22 -1 -3 -9z"/>
<path d="M3186 4665 c-6 -17 21 -48 35 -40 15 10 10 25 -6 19 -10 -4 -15 0
-15 11 0 11 5 15 15 11 8 -3 15 -1 15 4 0 16 -37 11 -44 -5z"/>
<path d="M3356 4663 c-8 -21 17 -48 35 -37 9 5 8 9 -7 15 -18 7 -17 8 3 8 16
1 21 6 17 16 -8 20 -40 19 -48 -2z"/>
<path d="M3431 4648 c1 -22 3 -26 6 -13 3 11 10 26 15 33 8 9 6 12 -6 12 -12
0 -16 -9 -15 -32z"/>
<path d="M4235 4670 c16 -7 17 -9 3 -9 -9 -1 -20 -6 -24 -12 -10 -16 8 -29 32
-23 29 8 21 54 -10 53 -20 0 -20 -1 -1 -9z"/>
<path d="M4281 4648 c1 -22 3 -26 6 -13 3 11 10 26 15 33 8 9 6 12 -6 12 -12
0 -16 -9 -15 -32z"/>
<path d="M4333 4671 c17 -6 17 -8 3 -20 -9 -7 -13 -17 -10 -22 7 -12 44 -11
44 1 0 6 -5 10 -12 10 -9 0 -9 3 0 12 19 19 14 28 -15 27 -23 0 -24 -2 -10 -8z"/>
<path d="M4386 4664 c-8 -22 17 -49 35 -38 9 5 8 9 -7 15 -17 7 -17 8 4 8 29
1 24 25 -5 29 -12 2 -23 -4 -27 -14z"/>
<path d="M4516 4663 c-8 -21 17 -48 35 -37 9 5 8 9 -7 15 -18 7 -17 8 3 8 16
1 21 6 17 16 -8 20 -40 19 -48 -2z"/>
<path d="M4687 4666 c-4 -9 1 -22 9 -30 20 -20 46 -9 42 18 -4 25 -43 34 -51
12z m41 -14 c2 -7 -3 -12 -12 -12 -9 0 -16 7 -16 16 0 17 22 14 28 -4z"/>
<path d="M4761 4648 c2 -31 2 -31 6 -5 5 31 23 37 23 8 0 -11 5 -23 10 -26 6
-4 10 7 10 24 0 26 -4 31 -25 31 -22 0 -25 -4 -24 -32z"/>
<path d="M4867 4666 c-4 -9 1 -22 9 -30 20 -20 46 -9 42 18 -4 25 -43 34 -51
12z m41 -14 c2 -7 -3 -12 -12 -12 -9 0 -16 7 -16 16 0 17 22 14 28 -4z"/>
<path d="M7472 4650 c0 -19 2 -27 5 -17 2 9 2 25 0 35 -3 9 -5 1 -5 -18z"/>
<path d="M7496 4665 c-6 -17 21 -48 35 -40 15 10 10 25 -6 19 -10 -4 -15 0
-15 11 0 11 5 15 15 11 8 -3 15 -1 15 4 0 16 -37 11 -44 -5z"/>
<path d="M7665 4671 c-3 -6 3 -14 12 -20 13 -8 14 -10 4 -11 -12 0 -12 -3 -3
-12 10 -9 16 -8 30 5 16 17 16 18 -8 24 -22 6 -22 7 -4 14 18 7 18 8 -3 8 -12
1 -24 -3 -28 -8z"/>
<path d="M7783 4656 c2 -23 7 -30 25 -31 18 -1 22 3 22 27 0 15 -4 28 -10 28
-5 0 -10 -9 -10 -20 0 -27 -17 -25 -23 3 -4 15 -5 13 -4 -7z"/>
<path d="M7851 4648 c2 -31 2 -31 6 -5 5 31 23 37 23 7 0 -11 5 -20 10 -20 6
0 10 11 10 25 0 20 -5 25 -25 25 -22 0 -25 -4 -24 -32z"/>
<path d="M7986 4663 c-8 -21 17 -48 35 -37 9 5 8 9 -7 15 -18 7 -17 8 3 8 16
1 21 6 17 16 -8 20 -40 19 -48 -2z"/>
<path d="M8061 4648 c2 -31 2 -31 6 -5 5 31 23 37 23 8 0 -11 5 -23 10 -26 6
-4 10 7 10 24 0 26 -4 31 -25 31 -22 0 -25 -4 -24 -32z"/>
<path d="M2900 4290 c-9 -6 -10 -10 -3 -10 6 0 14 -12 16 -27 3 -23 4 -21 6
10 0 20 0 37 -1 37 -2 0 -10 -5 -18 -10z"/>
<path d="M3162 4265 c0 -22 3 -30 5 -17 2 12 8 22 13 22 5 0 11 -10 13 -22 4
-20 4 -19 6 5 1 17 -4 27 -13 27 -8 0 -17 6 -19 13 -3 6 -5 -6 -5 -28z"/>
<path d="M3390 4290 c0 -5 -6 -10 -14 -10 -18 0 -30 -30 -17 -43 6 -6 9 -3 8
8 -3 27 21 29 26 3 3 -15 5 -10 6 15 0 20 -1 37 -4 37 -3 0 -5 -4 -5 -10z"/>
<path d="M3592 4265 c0 -22 2 -32 5 -22 6 23 20 21 34 -5 8 -14 14 -18 17 -10
2 6 7 10 12 7 4 -3 7 3 6 13 0 9 6 17 14 17 9 0 14 -8 13 -19 -1 -11 2 -15 8
-9 14 14 0 43 -21 43 -10 0 -22 -10 -25 -21 -6 -19 -9 -20 -23 -6 -13 14 -13
18 -1 34 13 17 12 17 -8 0 -21 -18 -21 -18 -26 0 -3 10 -5 0 -5 -22z"/>
<path d="M3783 4265 c0 -22 2 -30 4 -17 2 12 2 30 0 40 -3 9 -5 -1 -4 -23z"/>
<path d="M4041 4269 c-1 -25 3 -36 14 -36 8 0 12 4 8 9 -3 5 -9 22 -13 36 -8
26 -8 25 -9 -9z"/>
<path d="M3020 4265 c0 -8 6 -15 14 -15 8 0 17 -6 19 -12 4 -10 6 -10 6 0 1 7
-6 15 -15 19 -13 5 -13 7 -2 14 10 7 9 9 -4 9 -10 0 -18 -7 -18 -15z"/>
<path d="M3080 4255 c0 -23 3 -27 10 -15 8 12 10 12 10 1 0 -8 3 -12 6 -8 3 3
-1 16 -10 29 l-16 22 0 -29z"/>
<path d="M3100 4271 c0 -5 9 -7 20 -4 11 3 20 7 20 9 0 2 -9 4 -20 4 -11 0
-20 -4 -20 -9z"/>
<path d="M3252 4255 c0 -16 2 -22 5 -12 2 9 2 23 0 30 -3 6 -5 -1 -5 -18z"/>
<path d="M3271 4253 c2 -24 2 -25 6 -5 2 12 8 22 13 22 5 0 11 -10 13 -22 4
-20 4 -19 6 5 1 21 -4 27 -19 27 -15 0 -20 -6 -19 -27z"/>
<path d="M3417 4267 c-3 -8 -1 -20 4 -28 6 -10 9 -10 9 -1 0 6 9 12 20 12 13
0 18 5 14 15 -8 19 -40 20 -47 2z"/>
<path d="M3481 4253 c2 -24 2 -25 6 -5 2 12 8 22 13 22 5 0 11 -10 13 -22 4
-23 4 -23 6 1 1 16 5 21 16 17 8 -3 15 -1 15 4 0 6 -16 10 -35 10 -32 0 -35
-2 -34 -27z"/>
<path d="M3721 4253 c2 -24 2 -25 6 -5 2 12 8 22 13 22 5 0 11 -10 13 -22 4
-20 4 -19 6 5 1 21 -4 27 -19 27 -15 0 -20 -6 -19 -27z"/>
<path d="M3806 4263 c-4 -9 -2 -21 3 -26 6 -6 9 -2 8 9 -1 11 4 19 13 19 9 0
14 -8 13 -19 -1 -11 2 -15 8 -9 14 14 0 43 -21 43 -10 0 -21 -8 -24 -17z"/>
<path d="M3897 4267 c-3 -8 -1 -20 4 -28 6 -10 9 -10 9 -1 0 6 9 12 20 12 13
0 18 5 14 15 -8 19 -40 20 -47 2z"/>
<path d="M3962 4255 c0 -16 2 -22 5 -12 2 9 2 23 0 30 -3 6 -5 -1 -5 -18z"/>
<path d="M3981 4253 c2 -24 2 -25 6 -5 2 12 8 22 13 22 5 0 11 -10 13 -22 4
-20 4 -19 6 5 1 21 -4 27 -19 27 -15 0 -20 -6 -19 -27z"/>
<path d="M4060 4271 c0 -5 8 -8 18 -7 11 0 16 -6 16 -17 -2 -14 1 -15 12 -6
10 8 14 8 15 0 1 -6 2 -17 3 -23 0 -7 8 -13 16 -13 10 0 16 12 18 38 3 31 0
37 -17 37 -10 0 -22 -6 -25 -12 -5 -10 -7 -10 -12 0 -6 14 -44 17 -44 3z m90
-31 c0 -16 -5 -30 -12 -30 -6 0 -8 3 -5 6 3 4 2 14 -3 24 -9 17 -4 30 12 30 4
0 8 -13 8 -30z"/>
<path d="M4177 4267 c-3 -8 -1 -20 4 -28 8 -11 9 -10 7 5 -2 10 3 21 10 23 8
3 12 -6 12 -27 0 -26 -3 -31 -17 -25 -14 5 -15 3 -6 -6 18 -18 33 -1 33 37 0
27 -4 34 -19 34 -10 0 -21 -6 -24 -13z"/>
<path d="M4237 4267 c-3 -8 -1 -20 4 -28 6 -10 9 -10 9 -1 0 6 9 12 20 12 13
0 18 5 14 15 -8 19 -40 20 -47 2z"/>
<path d="M4301 4253 c2 -24 2 -25 6 -5 2 12 8 22 13 22 5 0 11 -10 13 -22 4
-20 4 -19 6 5 1 21 -4 27 -19 27 -15 0 -20 -6 -19 -27z"/>
<path d="M4454 4181 c0 -12 6 -17 18 -13 10 2 18 6 18 8 0 2 -8 8 -18 13 -14
7 -18 6 -18 -8z"/>
<path d="M6139 4116 c5 -6 11 -24 14 -41 l4 -30 2 32 c0 17 7 33 14 36 6 2 0
6 -16 9 -19 4 -24 2 -18 -6z"/>
<path d="M5310 4110 c0 -5 7 -7 15 -4 21 8 19 -16 -2 -32 -16 -12 -16 -15 -3
-24 8 -5 20 -10 25 -10 6 0 3 5 -5 10 -12 7 -12 12 -2 22 19 19 15 48 -8 48
-11 0 -20 -4 -20 -10z"/>
<path d="M5582 4085 c0 -22 3 -30 5 -17 2 12 8 22 13 22 5 0 11 -10 13 -22 4
-20 4 -19 6 5 1 17 -4 27 -13 27 -8 0 -17 6 -19 13 -3 6 -5 -6 -5 -28z"/>
<path d="M5670 4088 c0 -21 2 -38 4 -38 9 0 12 50 5 62 -6 8 -9 -1 -9 -24z"/>
<path d="M6741 4089 c-1 -25 3 -36 14 -36 8 0 12 4 8 9 -3 5 -9 22 -13 36 -8
26 -8 25 -9 -9z"/>
<path d="M6790 4110 c0 -5 -7 -10 -15 -10 -8 0 -15 -4 -15 -10 0 -5 6 -7 14
-4 9 4 16 -3 19 -18 3 -15 5 -10 6 15 0 20 -1 37 -4 37 -3 0 -5 -4 -5 -10z"/>
<path d="M5440 4085 c0 -8 6 -15 14 -15 8 0 17 -6 19 -12 4 -10 6 -10 6 0 1 7
-6 15 -15 19 -13 5 -13 7 -2 14 10 7 9 9 -4 9 -10 0 -18 -7 -18 -15z"/>
<path d="M5500 4075 c0 -23 3 -27 10 -15 8 12 10 12 10 1 0 -8 3 -12 6 -8 3 3
-1 16 -10 29 l-16 22 0 -29z"/>
<path d="M5520 4091 c0 -5 9 -7 20 -4 11 3 20 7 20 9 0 2 -9 4 -20 4 -11 0
-20 -4 -20 -9z"/>
<path d="M5712 4075 c0 -16 2 -22 5 -12 2 9 2 23 0 30 -3 6 -5 -1 -5 -18z"/>
<path d="M5742 4075 c0 -16 2 -22 5 -12 2 9 2 23 0 30 -3 6 -5 -1 -5 -18z"/>
<path d="M5770 4075 c0 -14 2 -25 4 -25 2 0 6 11 8 25 3 14 1 25 -3 25 -5 0
-9 -11 -9 -25z"/>
<path d="M5837 4087 c-3 -8 -1 -20 4 -28 6 -10 9 -10 9 -1 0 6 9 12 20 12 13
0 18 5 14 15 -8 19 -40 20 -47 2z"/>
<path d="M5902 4075 c0 -16 2 -22 5 -12 2 9 2 23 0 30 -3 6 -5 -1 -5 -18z"/>
<path d="M5921 4073 c2 -24 2 -25 6 -5 2 12 8 22 13 22 5 0 11 -10 13 -22 4
-20 4 -19 6 5 1 21 -4 27 -19 27 -15 0 -20 -6 -19 -27z"/>
<path d="M5977 4087 c-3 -8 -1 -20 4 -28 6 -10 9 -10 9 -1 0 6 9 12 20 12 13
0 18 5 14 15 -8 19 -40 20 -47 2z"/>
<path d="M6041 4073 c2 -24 2 -25 6 -5 2 12 8 22 13 22 5 0 11 -10 13 -22 4
-20 4 -19 6 5 1 21 -4 27 -19 27 -15 0 -20 -6 -19 -27z"/>
<path d="M6187 4087 c-3 -8 -1 -20 4 -28 6 -10 9 -10 9 -1 0 6 9 12 20 12 13
0 18 5 14 15 -8 19 -40 20 -47 2z"/>
<path d="M6250 4075 c0 -14 2 -25 4 -25 2 0 6 11 8 25 3 14 1 25 -3 25 -5 0
-9 -11 -9 -25z"/>
<path d="M6291 4073 c2 -24 2 -24 6 -5 2 12 8 22 13 22 5 0 11 -10 13 -22 l4
-23 2 23 c1 25 26 26 26 2 0 -7 6 -15 13 -17 7 -3 12 5 12 19 0 22 -5 25 -45
27 -43 2 -45 1 -44 -26z"/>
<path d="M6391 4073 c2 -24 2 -25 6 -5 2 12 8 22 13 22 5 0 11 -10 13 -22 4
-20 4 -19 6 5 1 21 -4 27 -19 27 -15 0 -20 -6 -19 -27z"/>
<path d="M6495 4090 c16 -7 16 -9 4 -9 -9 -1 -19 -8 -23 -16 -7 -18 10 -20 17
-2 4 9 8 8 16 -3 9 -12 11 -10 11 13 0 22 -4 27 -22 26 -22 0 -22 -1 -3 -9z"/>
<path d="M6541 4073 c2 -24 2 -25 6 -5 2 12 8 22 13 22 5 0 11 -10 13 -22 4
-20 4 -19 6 5 1 21 -4 27 -19 27 -15 0 -20 -6 -19 -27z"/>
<path d="M6601 4072 c2 -23 2 -24 6 -4 2 12 8 22 13 22 5 0 11 -10 13 -22 l4
-23 2 23 c0 14 6 22 14 19 6 -2 11 -12 11 -21 -1 -9 4 -16 12 -16 8 0 14 5 14
10 0 6 9 10 20 10 12 0 17 5 14 14 -4 10 -24 14 -65 15 -58 1 -59 0 -58 -27z"/>
<path d="M6817 4087 c-3 -8 -1 -20 4 -28 6 -10 9 -10 9 -1 0 6 9 12 20 12 13
0 18 5 14 15 -8 19 -40 20 -47 2z"/>
<path d="M6881 4073 c2 -24 2 -25 6 -5 2 12 8 22 13 22 5 0 11 -10 13 -22 4
-20 4 -19 6 5 1 21 -4 27 -19 27 -15 0 -20 -6 -19 -27z"/>
<path d="M7644 4001 c0 -12 6 -17 18 -13 10 2 18 6 18 8 0 2 -8 8 -18 13 -14
7 -18 6 -18 -8z"/>
<path d="M5890 3900 c0 -5 8 -6 17 -3 12 5 15 2 10 -10 -3 -9 -2 -19 4 -22 15
-10 -1 -27 -20 -20 -12 5 -13 4 -4 -6 19 -19 40 5 35 41 -3 21 -10 30 -23 30
-11 0 -19 -4 -19 -10z"/>
<path d="M4593 3803 c-17 -6 -17 -20 0 -26 8 -3 13 3 13 14 0 11 0 19 -1 18 0
0 -6 -3 -12 -6z"/>
<path d="M4657 3366 c-15 -22 -14 -24 9 -34 23 -11 24 -10 24 23 0 41 -11 45
-33 11z m15 -18 c-7 -7 -12 -8 -12 -2 0 6 3 14 7 17 3 4 9 5 12 2 2 -3 -1 -11
-7 -17z"/>
<path d="M4781 3358 c-1 -21 3 -38 8 -38 5 0 7 10 4 21 -4 16 -2 20 8 17 8 -3
13 -13 12 -23 -1 -11 2 -14 8 -8 12 12 1 43 -16 43 -7 0 -16 6 -18 13 -3 6 -6
-5 -6 -25z"/>
<path d="M4922 3355 c0 -22 3 -30 5 -17 2 12 8 22 13 22 5 0 11 -10 13 -22 4
-20 4 -19 6 5 1 17 -4 27 -13 27 -8 0 -17 6 -19 13 -3 6 -5 -6 -5 -28z"/>
<path d="M5371 3359 c-1 -25 3 -36 14 -36 8 0 15 4 15 9 0 4 9 8 20 8 13 0 18
5 14 15 -7 18 -44 20 -45 3 -1 -7 -5 -2 -9 12 -7 23 -8 22 -9 -11z"/>
<path d="M5533 3355 c0 -22 2 -30 4 -17 2 12 2 30 0 40 -3 9 -5 -1 -4 -23z"/>
<path d="M5623 3355 c0 -22 2 -30 4 -17 2 12 2 30 0 40 -3 9 -5 -1 -4 -23z"/>
<path d="M5740 3377 c0 -8 12 -19 27 -26 19 -9 23 -15 15 -23 -8 -8 -15 -8
-27 2 -8 7 -15 8 -15 2 0 -16 31 -23 46 -11 20 17 17 28 -11 39 -30 11 -34 25
-5 17 11 -3 20 -1 20 4 0 5 -11 9 -25 9 -14 0 -25 -6 -25 -13z"/>
<path d="M5813 3355 c0 -22 2 -30 4 -17 2 12 2 30 0 40 -3 9 -5 -1 -4 -23z"/>
<path d="M5990 3380 c0 -5 -6 -10 -14 -10 -18 0 -30 -30 -17 -43 6 -6 9 -3 8
8 -3 27 21 29 26 3 3 -15 5 -10 6 15 0 20 -1 37 -4 37 -3 0 -5 -4 -5 -10z"/>
<path d="M6173 3355 c0 -22 2 -30 4 -17 2 12 2 30 0 40 -3 9 -5 -1 -4 -23z"/>
<path d="M6370 3380 c0 -5 -6 -10 -14 -10 -18 0 -30 -30 -17 -43 6 -6 9 -3 8
8 -3 27 21 29 26 3 3 -15 5 -10 6 15 0 20 -1 37 -4 37 -3 0 -5 -4 -5 -10z"/>
<path d="M6552 3355 c0 -22 2 -32 5 -22 6 22 19 22 31 0 12 -20 53 -26 45 -6
-3 7 -1 13 5 13 6 0 13 -6 15 -12 3 -7 6 -1 6 15 1 22 -3 27 -21 26 -19 0 -20
-2 -6 -7 15 -6 14 -9 -7 -18 -33 -16 -55 7 -34 34 12 15 11 15 -8 -1 -21 -18
-21 -18 -26 0 -3 10 -5 0 -5 -22z"/>
<path d="M6682 3355 c0 -22 2 -34 5 -26 5 11 7 11 14 0 6 -10 9 -11 9 -1 0 6
9 12 20 12 13 0 18 5 14 15 -7 18 -44 20 -45 3 -1 -7 -5 -2 -9 12 -7 21 -8 19
-8 -15z"/>
<path d="M6850 3380 c0 -5 -6 -10 -14 -10 -18 0 -30 -30 -17 -43 6 -6 9 -3 8
8 -3 27 21 29 26 3 3 -15 5 -10 6 15 0 20 -1 37 -4 37 -3 0 -5 -4 -5 -10z"/>
<path d="M7062 3355 c0 -22 3 -30 5 -17 2 12 8 22 13 22 5 0 11 -10 13 -22 4
-20 4 -19 6 5 1 17 -4 27 -13 27 -8 0 -17 6 -19 13 -3 6 -5 -6 -5 -28z"/>
<path d="M7432 3355 c0 -22 3 -30 5 -17 2 12 8 22 13 22 5 0 11 -10 13 -22 4
-20 4 -19 6 5 1 17 -4 27 -13 27 -8 0 -17 6 -19 13 -3 6 -5 -6 -5 -28z"/>
<path d="M4842 3345 c0 -16 2 -22 5 -12 2 9 2 23 0 30 -3 6 -5 -1 -5 -18z"/>
<path d="M4860 3355 c0 -8 7 -15 15 -15 8 0 15 -5 15 -11 0 -6 -7 -8 -17 -4
-15 5 -16 4 -5 -6 10 -11 14 -11 25 0 10 10 8 15 -6 26 -13 10 -15 14 -5 18 8
4 7 6 -4 6 -10 1 -18 -6 -18 -14z"/>
<path d="M4977 3357 c-3 -8 -1 -20 4 -28 6 -10 9 -10 9 -1 0 6 9 12 20 12 13
0 18 5 14 15 -8 19 -40 20 -47 2z"/>
<path d="M5040 3345 c0 -14 2 -25 4 -25 2 0 6 11 8 25 3 14 1 25 -3 25 -5 0
-9 -11 -9 -25z"/>
<path d="M5080 3341 l0 -25 16 22 c21 31 34 27 34 -9 0 -26 -3 -30 -17 -24
-14 5 -15 3 -6 -6 18 -18 33 -1 33 37 0 32 -2 34 -30 32 -25 -2 -30 -7 -30
-27z"/>
<path d="M5157 3357 c-3 -8 -1 -20 4 -28 6 -10 9 -10 9 -1 0 6 9 12 20 12 13
0 18 5 14 15 -8 19 -40 20 -47 2z"/>
<path d="M5247 3357 c-3 -8 -1 -20 4 -28 8 -11 9 -10 7 5 -2 10 3 21 10 23 8
3 12 -6 12 -27 0 -26 -3 -31 -17 -25 -14 5 -15 3 -6 -6 18 -18 33 -1 33 37 0
27 -4 34 -19 34 -10 0 -21 -6 -24 -13z"/>
<path d="M5307 3357 c-3 -8 -1 -20 4 -28 6 -10 9 -10 9 -1 0 6 9 12 20 12 13
0 18 5 14 15 -8 19 -40 20 -47 2z"/>
<path d="M5452 3345 c0 -16 2 -22 5 -12 2 9 2 23 0 30 -3 6 -5 -1 -5 -18z"/>
<path d="M5470 3355 c0 -8 6 -15 14 -15 8 0 17 -6 19 -12 4 -10 6 -10 6 0 1 7
-6 15 -15 19 -13 5 -13 7 -2 14 10 7 9 9 -4 9 -10 0 -18 -7 -18 -15z"/>
<path d="M5557 3357 c-3 -8 -1 -20 4 -28 6 -10 9 -10 9 -1 0 6 9 12 20 12 13
0 18 5 14 15 -8 19 -40 20 -47 2z"/>
<path d="M5647 3357 c-3 -8 -1 -20 4 -28 6 -10 9 -10 9 -1 0 6 9 12 20 12 13
0 18 5 14 15 -8 19 -40 20 -47 2z"/>
<path d="M5840 3346 c0 -14 4 -27 8 -30 5 -3 6 8 4 25 -5 35 -12 38 -12 5z"/>
<path d="M5872 3345 c0 -16 2 -22 5 -12 2 9 2 23 0 30 -3 6 -5 -1 -5 -18z"/>
<path d="M5901 3343 c2 -24 2 -25 6 -5 2 12 8 22 13 22 5 0 11 -10 13 -22 4
-20 4 -19 6 5 1 21 -4 27 -19 27 -15 0 -20 -6 -19 -27z"/>
<path d="M6016 3353 c-4 -9 -2 -21 4 -27 7 -7 10 -6 10 2 0 7 9 12 20 12 13 0
18 5 14 15 -8 20 -40 19 -48 -2z"/>
<path d="M6081 3343 c2 -24 2 -25 6 -5 2 12 8 22 13 22 5 0 11 -10 13 -22 4
-20 4 -19 6 5 1 21 -4 27 -19 27 -15 0 -20 -6 -19 -27z"/>
<path d="M6210 3346 c0 -14 4 -27 8 -30 5 -3 6 8 4 25 -5 35 -12 38 -12 5z"/>
<path d="M6242 3345 c0 -16 2 -22 5 -12 2 9 2 23 0 30 -3 6 -5 -1 -5 -18z"/>
<path d="M6270 3345 c0 -14 2 -25 4 -25 2 0 6 11 8 25 3 14 1 25 -3 25 -5 0
-9 -11 -9 -25z"/>
<path d="M6415 3360 c16 -7 16 -9 4 -9 -9 -1 -19 -8 -23 -16 -7 -18 10 -20 17
-2 4 9 8 8 16 -3 9 -12 11 -10 11 13 0 22 -4 27 -22 26 -22 0 -22 -1 -3 -9z"/>
<path d="M6460 3355 c0 -8 7 -15 16 -15 11 0 14 -5 9 -17 -5 -15 -4 -16 7 -5
11 11 10 16 -5 27 -13 10 -15 14 -5 18 8 4 7 6 -4 6 -10 1 -18 -6 -18 -14z"/>
<path d="M6761 3343 c2 -24 2 -25 6 -5 2 12 8 22 13 22 5 0 11 -10 13 -22 4
-20 4 -19 6 5 1 21 -4 27 -19 27 -15 0 -20 -6 -19 -27z"/>
<path d="M6895 3360 c16 -7 16 -9 4 -9 -9 -1 -19 -8 -23 -16 -7 -18 10 -20 17
-2 4 9 8 8 16 -3 9 -12 11 -10 11 13 0 22 -4 27 -22 26 -22 0 -22 -1 -3 -9z"/>
<path d="M6940 3345 c0 -14 2 -25 4 -25 2 0 6 11 8 25 3 14 1 25 -3 25 -5 0
-9 -11 -9 -25z"/>
<path d="M6979 3332 c-4 -36 -3 -40 8 -27 6 10 16 14 22 10 7 -3 8 0 5 9 -3 9
-2 16 4 16 6 0 13 -6 15 -12 3 -7 6 -1 6 15 1 22 -3 27 -21 26 -22 0 -22 -1
-3 -9 17 -7 17 -9 3 -9 -10 -1 -18 -7 -19 -13 -1 -7 -4 -2 -8 12 -7 22 -8 19
-12 -18z"/>
<path d="M7120 3345 c0 -14 2 -25 4 -25 2 0 6 11 8 25 3 14 1 25 -3 25 -5 0
-9 -11 -9 -25z"/>
<path d="M7205 3360 c16 -7 16 -9 4 -9 -22 -1 -32 -28 -14 -35 9 -3 12 0 8 10
-3 7 -1 14 5 14 6 0 13 -6 15 -12 3 -7 6 -1 6 15 1 22 -3 27 -21 26 -22 0 -22
-1 -3 -9z"/>
<path d="M7251 3343 c2 -24 2 -25 6 -5 2 12 8 22 13 22 5 0 11 -10 13 -22 4
-20 4 -19 6 5 1 21 -4 27 -19 27 -15 0 -20 -6 -19 -27z"/>
<path d="M7310 3355 c0 -8 6 -15 14 -15 8 0 17 -6 19 -12 4 -10 6 -10 6 0 1 7
-6 15 -15 19 -13 5 -13 7 -2 14 10 7 9 9 -4 9 -10 0 -18 -7 -18 -15z"/>
<path d="M7367 3357 c-3 -8 -1 -20 4 -28 6 -10 9 -10 9 -1 0 6 9 12 20 12 13
0 18 5 14 15 -8 19 -40 20 -47 2z"/>
<path d="M7487 3357 c-3 -8 -1 -20 4 -28 6 -10 9 -10 9 -1 0 6 9 12 20 12 13
0 18 5 14 15 -8 19 -40 20 -47 2z"/>
<path d="M7551 3343 c2 -24 2 -25 6 -5 2 12 8 22 13 22 5 0 11 -10 13 -22 4
-20 4 -19 6 5 1 21 -4 27 -19 27 -15 0 -20 -6 -19 -27z"/>
<path d="M7644 3270 c0 -10 6 -16 13 -13 7 3 13 9 13 13 0 4 -6 10 -13 13 -7
3 -13 -3 -13 -13z"/>
<path d="M5890 3161 c0 -12 7 -18 18 -17 9 0 17 -6 17 -14 0 -9 -8 -14 -19
-13 -13 1 -15 -2 -7 -10 8 -8 16 -6 29 7 16 16 16 18 -6 36 -20 17 -21 19 -5
23 14 4 13 5 -4 6 -16 1 -23 -5 -23 -18z"/>
<path d="M4625 3090 c-3 -6 1 -7 9 -4 18 7 21 14 7 14 -6 0 -13 -4 -16 -10z"/>
<path d="M4593 3073 c-17 -6 -17 -20 0 -26 8 -3 13 3 13 14 0 11 0 19 -1 18 0
0 -6 -3 -12 -6z"/>
<path d="M2660 2568 c0 -5 12 -8 28 -9 15 0 37 -2 50 -3 12 -2 22 2 22 8 0 6
-21 11 -50 11 -27 0 -50 -3 -50 -7z"/>
<path d="M4480 2568 c0 -5 23 -8 50 -8 28 0 50 3 50 8 0 4 -22 7 -50 7 -27 0
-50 -3 -50 -7z"/>
<path d="M7670 2559 c0 -11 49 -20 75 -13 40 10 29 19 -25 19 -27 0 -50 -3
-50 -6z"/>
<path d="M2040 2011 c0 -5 9 -7 20 -4 11 3 20 7 20 9 0 2 -9 4 -20 4 -11 0
-20 -4 -20 -9z"/>
<path d="M2312 1985 c0 -22 3 -30 5 -17 2 12 8 22 13 22 5 0 11 -10 13 -22 4
-20 4 -19 6 5 1 17 -4 27 -13 27 -8 0 -17 6 -19 13 -3 6 -5 -6 -5 -28z"/>
<path d="M2540 2010 c0 -5 -6 -10 -14 -10 -18 0 -30 -30 -17 -43 6 -6 9 -3 8
8 -3 27 21 29 26 3 3 -15 5 -10 6 15 0 20 -1 37 -4 37 -3 0 -5 -4 -5 -10z"/>
<path d="M2742 1985 c0 -22 2 -32 5 -22 6 23 20 21 34 -5 8 -14 14 -18 17 -10
2 6 7 10 12 7 4 -3 7 3 6 13 0 9 6 17 14 17 9 0 14 -8 13 -19 -1 -11 2 -15 8
-9 14 14 0 43 -21 43 -10 0 -22 -10 -25 -21 -6 -19 -9 -20 -23 -6 -13 14 -13
18 -1 34 13 17 12 17 -8 0 -21 -18 -21 -18 -26 0 -3 10 -5 0 -5 -22z"/>
<path d="M2933 1985 c0 -22 2 -30 4 -17 2 12 2 30 0 40 -3 9 -5 -1 -4 -23z"/>
<path d="M3191 1989 c-1 -25 3 -36 14 -36 8 0 12 4 8 9 -3 5 -9 22 -13 36 -8
26 -8 25 -9 -9z"/>
<path d="M2170 1985 c0 -8 7 -15 15 -15 8 0 15 -5 15 -11 0 -6 -7 -8 -17 -4
-15 5 -16 4 -5 -6 10 -11 14 -11 25 0 10 10 8 15 -6 26 -13 10 -15 14 -5 18 8
4 7 6 -4 6 -10 1 -18 -6 -18 -14z"/>
<path d="M2230 1975 c1 -26 2 -27 11 -12 6 10 20 22 32 27 l22 9 -22 0 c-13 1
-23 -5 -23 -11 0 -9 -4 -8 -10 2 -7 11 -10 8 -10 -15z"/>
<path d="M2402 1975 c0 -16 2 -22 5 -12 2 9 2 23 0 30 -3 6 -5 -1 -5 -18z"/>
<path d="M2421 1973 c2 -24 2 -25 6 -5 2 12 8 22 13 22 5 0 11 -10 13 -22 4
-20 4 -19 6 5 1 21 -4 27 -19 27 -15 0 -20 -6 -19 -27z"/>
<path d="M2567 1987 c-3 -8 -1 -20 4 -28 6 -10 9 -10 9 -1 0 6 9 12 20 12 13
0 18 5 14 15 -8 19 -40 20 -47 2z"/>
<path d="M2631 1973 c2 -24 2 -25 6 -5 2 12 8 22 13 22 5 0 11 -10 13 -22 4
-23 4 -23 6 1 1 16 5 21 16 17 8 -3 15 -1 15 4 0 6 -16 10 -35 10 -32 0 -35
-2 -34 -27z"/>
<path d="M2871 1973 c2 -24 2 -25 6 -5 2 12 8 22 13 22 5 0 11 -10 13 -22 4
-20 4 -19 6 5 1 21 -4 27 -19 27 -15 0 -20 -6 -19 -27z"/>
<path d="M2956 1983 c-4 -9 -2 -21 4 -27 8 -8 9 -6 5 5 -8 21 13 35 27 21 8
-8 7 -16 -2 -29 -13 -17 -13 -17 3 -2 21 19 13 49 -13 49 -10 0 -21 -8 -24
-17z"/>
<path d="M3047 1987 c-3 -8 -1 -20 4 -28 6 -10 9 -10 9 -1 0 6 9 12 20 12 13
0 18 5 14 15 -8 19 -40 20 -47 2z"/>
<path d="M3112 1975 c0 -16 2 -22 5 -12 2 9 2 23 0 30 -3 6 -5 -1 -5 -18z"/>
<path d="M3131 1973 c2 -24 2 -25 6 -5 2 12 8 22 13 22 5 0 11 -10 13 -22 4
-20 4 -19 6 5 1 21 -4 27 -19 27 -15 0 -20 -6 -19 -27z"/>
<path d="M3210 1990 c0 -5 6 -7 14 -4 20 8 30 -14 15 -34 -7 -9 0 -5 17 11 38
34 44 34 44 -4 0 -26 -3 -30 -17 -24 -14 5 -15 3 -6 -6 18 -18 33 -1 33 37 0
26 -4 34 -18 34 -10 0 -23 -5 -30 -12 -9 -9 -12 -9 -12 0 0 7 -9 12 -20 12
-11 0 -20 -4 -20 -10z"/>
<path d="M3325 1983 c-5 -15 -4 -16 6 -5 20 19 29 14 29 -18 0 -16 -5 -30 -11
-30 -5 0 -8 4 -4 9 3 5 1 12 -4 15 -5 4 -8 -2 -7 -11 5 -34 31 -19 34 20 3 31
0 37 -16 37 -11 0 -23 -8 -27 -17z"/>
<path d="M3386 1983 c-4 -9 -2 -21 4 -27 7 -7 10 -6 10 2 0 7 9 12 20 12 13 0
18 5 14 15 -8 20 -40 19 -48 -2z"/>
<path d="M3451 1973 c2 -24 2 -25 6 -5 2 12 8 22 13 22 5 0 11 -10 13 -22 4
-20 4 -19 6 5 1 21 -4 27 -19 27 -15 0 -20 -6 -19 -27z"/>
<path d="M2030 1982 c0 -5 6 -17 14 -28 14 -18 16 -18 32 -2 13 13 15 21 7 29
-8 8 -11 6 -10 -6 1 -10 -4 -20 -10 -22 -8 -3 -13 4 -13 16 0 12 -4 21 -10 21
-5 0 -10 -4 -10 -8z"/>
<path d="M4454 1901 c0 -12 6 -17 18 -13 10 2 18 6 18 8 0 2 -8 8 -18 13 -14
7 -18 6 -18 -8z"/>
<path d="M2700 1900 c0 -5 5 -10 10 -10 6 0 10 5 10 10 0 6 -4 10 -10 10 -5 0
-10 -4 -10 -10z"/>
<path d="M4420 1870 c-9 -6 -10 -10 -3 -10 6 0 15 5 18 10 8 12 4 12 -15 0z"/>
<path d="M6498 1713 c-2 -5 -1 -24 3 -43 l6 -35 2 38 c1 26 5 36 13 31 7 -4 8
-3 4 4 -8 14 -23 16 -28 5z"/>
<path d="M4982 1703 c15 -4 16 -8 7 -24 -6 -11 -9 -24 -7 -28 2 -5 10 7 19 25
l16 34 -26 -1 c-17 -1 -20 -3 -9 -6z"/>
<path d="M5222 1675 c0 -22 2 -34 5 -26 5 11 7 11 14 0 6 -10 9 -11 9 -1 0 6
9 12 20 12 13 0 18 5 14 15 -7 18 -44 20 -45 3 -1 -7 -5 -2 -9 12 -7 21 -8 19
-8 -15z"/>
<path d="M5383 1675 c0 -22 2 -30 4 -17 2 12 2 30 0 40 -3 9 -5 -1 -4 -23z"/>
<path d="M5473 1675 c0 -22 2 -30 4 -17 2 12 2 30 0 40 -3 9 -5 -1 -4 -23z"/>
<path d="M5590 1697 c0 -8 12 -19 27 -26 19 -9 23 -15 15 -23 -8 -8 -15 -8
-27 2 -8 7 -15 8 -15 2 0 -16 31 -23 46 -11 20 17 17 28 -11 39 -30 11 -34 25
-5 17 11 -3 20 -1 20 4 0 5 -11 9 -25 9 -14 0 -25 -6 -25 -13z"/>
<path d="M5663 1675 c0 -22 2 -30 4 -17 2 12 2 30 0 40 -3 9 -5 -1 -4 -23z"/>
<path d="M5840 1700 c0 -5 -6 -10 -14 -10 -18 0 -30 -30 -17 -43 6 -6 9 -3 8
8 -3 27 21 29 26 3 3 -15 5 -10 6 15 0 20 -1 37 -4 37 -3 0 -5 -4 -5 -10z"/>
<path d="M6020 1678 c0 -21 2 -38 4 -38 9 0 12 50 5 62 -6 8 -9 -1 -9 -24z"/>
<path d="M6973 1675 c0 -22 2 -30 4 -17 2 12 2 30 0 40 -3 9 -5 -1 -4 -23z"/>
<path d="M5097 1677 c-3 -8 -1 -20 4 -28 8 -11 9 -10 7 5 -2 10 3 21 10 23 8
3 12 -6 12 -27 0 -26 -3 -31 -17 -25 -14 5 -15 3 -6 -6 18 -18 33 -1 33 37 0
27 -4 34 -19 34 -10 0 -21 -6 -24 -13z"/>
<path d="M5157 1677 c-3 -8 -1 -20 4 -28 6 -10 9 -10 9 -1 0 6 9 12 20 12 13
0 18 5 14 15 -8 19 -40 20 -47 2z"/>
<path d="M5302 1665 c0 -16 2 -22 5 -12 2 9 2 23 0 30 -3 6 -5 -1 -5 -18z"/>
<path d="M5320 1675 c0 -8 7 -15 16 -15 11 0 14 -5 9 -17 -5 -15 -4 -16 7 -5
11 11 10 16 -5 27 -13 10 -15 14 -5 18 8 4 7 6 -4 6 -10 1 -18 -6 -18 -14z"/>
<path d="M5407 1677 c-3 -8 -1 -20 4 -28 6 -10 9 -10 9 -1 0 6 9 12 20 12 13
0 18 5 14 15 -8 19 -40 20 -47 2z"/>
<path d="M5497 1677 c-3 -8 -1 -20 4 -28 6 -10 9 -10 9 -1 0 6 9 12 20 12 13
0 18 5 14 15 -8 19 -40 20 -47 2z"/>
<path d="M5692 1665 c0 -16 2 -22 5 -12 2 9 2 23 0 30 -3 6 -5 -1 -5 -18z"/>
<path d="M5722 1665 c0 -16 2 -22 5 -12 2 9 2 23 0 30 -3 6 -5 -1 -5 -18z"/>
<path d="M5751 1663 c2 -24 2 -25 6 -5 2 12 8 22 13 22 5 0 11 -10 13 -22 4
-20 4 -19 6 5 1 21 -4 27 -19 27 -15 0 -20 -6 -19 -27z"/>
<path d="M5867 1677 c-3 -8 -1 -20 4 -28 6 -10 9 -10 9 -1 0 6 9 12 20 12 13
0 18 5 14 15 -8 19 -40 20 -47 2z"/>
<path d="M5931 1663 c2 -24 2 -25 6 -5 2 12 8 22 13 22 5 0 11 -10 13 -22 4
-20 4 -19 6 5 1 21 -4 27 -19 27 -15 0 -20 -6 -19 -27z"/>
<path d="M6062 1665 c0 -16 2 -22 5 -12 2 9 2 23 0 30 -3 6 -5 -1 -5 -18z"/>
<path d="M6092 1665 c0 -16 2 -22 5 -12 2 9 2 23 0 30 -3 6 -5 -1 -5 -18z"/>
<path d="M6121 1663 c1 -22 2 -23 6 -8 3 11 10 23 17 27 7 5 5 8 -6 8 -13 0
-18 -7 -17 -27z"/>
<path d="M6187 1677 c-3 -8 -1 -20 4 -28 6 -10 9 -10 9 -1 0 6 9 12 20 12 13
0 18 5 14 15 -8 19 -40 20 -47 2z"/>
<path d="M6252 1665 c0 -16 2 -22 5 -12 2 9 2 23 0 30 -3 6 -5 -1 -5 -18z"/>
<path d="M6271 1663 c2 -24 2 -25 6 -5 2 12 8 22 13 22 5 0 11 -10 13 -22 4
-20 4 -19 6 5 1 21 -4 27 -19 27 -15 0 -20 -6 -19 -27z"/>
<path d="M6327 1677 c-3 -8 -1 -20 4 -28 6 -10 9 -10 9 -1 0 6 9 12 20 12 13
0 18 5 14 15 -8 19 -40 20 -47 2z"/>
<path d="M6391 1663 c2 -24 2 -25 6 -5 2 12 8 22 13 22 5 0 11 -10 13 -22 4
-20 4 -19 6 5 1 21 -4 27 -19 27 -15 0 -20 -6 -19 -27z"/>
<path d="M6537 1677 c-3 -8 -1 -20 4 -28 6 -10 9 -10 9 -1 0 6 9 12 20 12 13
0 18 5 14 15 -8 19 -40 20 -47 2z"/>
<path d="M6601 1663 c1 -22 2 -23 6 -8 3 11 10 23 17 27 7 5 5 8 -6 8 -13 0
-18 -7 -17 -27z"/>
<path d="M6641 1663 c2 -24 2 -24 6 -5 2 12 8 22 13 22 5 0 11 -10 13 -22 l4
-23 2 23 c0 12 6 22 11 22 9 0 14 -14 11 -32 0 -5 6 -8 14 -8 9 0 15 9 15 23
0 21 -5 24 -45 26 -43 2 -45 1 -44 -26z"/>
<path d="M6741 1663 c2 -24 2 -25 6 -5 2 12 8 22 13 22 5 0 11 -10 13 -22 4
-20 4 -19 6 5 1 21 -4 27 -19 27 -15 0 -20 -6 -19 -27z"/>
<path d="M6827 1677 c-3 -8 -1 -20 4 -28 6 -10 9 -10 9 -1 0 6 9 12 20 12 13
0 18 5 14 15 -8 19 -40 20 -47 2z"/>
<path d="M6892 1665 c0 -16 2 -22 5 -12 2 9 2 23 0 30 -3 6 -5 -1 -5 -18z"/>
<path d="M6911 1663 c2 -24 2 -25 6 -5 2 12 8 22 13 22 5 0 11 -10 13 -22 4
-20 4 -19 6 5 1 21 -4 27 -19 27 -15 0 -20 -6 -19 -27z"/>
<path d="M7000 1665 c0 -14 2 -25 4 -25 2 0 6 11 8 25 3 14 1 25 -3 25 -5 0
-9 -11 -9 -25z"/>
<path d="M7055 1680 c16 -7 17 -9 3 -9 -19 -1 -33 -19 -23 -29 3 -3 10 0 16 8
8 13 10 13 19 0 8 -12 10 -9 10 13 0 22 -4 27 -22 26 -22 0 -22 -1 -3 -9z"/>
<path d="M7097 1677 c-3 -8 -1 -20 4 -28 8 -11 9 -10 7 5 -2 10 3 21 10 23 8
3 12 -6 12 -27 0 -26 -3 -31 -17 -25 -14 5 -15 3 -6 -6 18 -18 33 -1 33 37 0
27 -4 34 -19 34 -10 0 -21 -6 -24 -13z"/>
<path d="M7157 1677 c-3 -8 -1 -20 4 -28 6 -10 9 -10 9 -1 0 6 9 12 20 12 13
0 18 5 14 15 -8 19 -40 20 -47 2z"/>
<path d="M7221 1663 c2 -24 2 -25 6 -5 2 12 8 22 13 22 5 0 11 -10 13 -22 4
-20 4 -19 6 5 1 21 -4 27 -19 27 -15 0 -20 -6 -19 -27z"/>
<path d="M7644 1591 c0 -12 6 -17 18 -13 10 2 18 6 18 8 0 2 -8 8 -18 13 -14
7 -18 6 -18 -8z"/>
<path d="M5890 1476 c0 -13 6 -23 13 -22 6 0 12 -3 12 -9 0 -5 -6 -9 -14 -8
-10 1 -10 -2 -2 -10 18 -18 41 13 34 46 -7 35 -43 38 -43 3z m30 4 c0 -5 -4
-10 -10 -10 -5 0 -10 5 -10 10 0 6 5 10 10 10 6 0 10 -4 10 -10z"/>
<path d="M4625 1410 c-3 -6 1 -7 9 -4 18 7 21 14 7 14 -6 0 -13 -4 -16 -10z"/>
<path d="M4593 1393 c-17 -6 -17 -20 0 -26 8 -3 13 3 13 14 0 11 0 19 -1 18 0
0 -6 -3 -12 -6z"/>
<path d="M7670 898 c0 -5 23 -8 50 -8 28 0 50 3 50 8 0 4 -22 7 -50 7 -27 0
-50 -3 -50 -7z"/>
<path d="M973 886 c4 -13 90 -13 94 -1 2 6 -19 10 -47 10 -27 0 -49 -4 -47 -9z"/>
<path d="M4480 888 c0 -5 23 -8 50 -8 28 0 50 3 50 8 0 4 -22 7 -50 7 -27 0
-50 -3 -50 -7z"/>
</g>
</svg>
